<svg width="28" height="28" viewBox="0 0 28 28" fill="none" xmlns="http://www.w3.org/2000/svg">
<circle cx="14" cy="14" r="14" fill="#00428D"/>
<path d="M16.9663 13.4698C16.9055 13.3355 16.772 13.25 16.625 13.25H15.125V8.375C15.125 8.168 14.957 8 14.75 8H13.25C13.043 8 12.875 8.168 12.875 8.375V13.25H11.375C11.228 13.25 11.0945 13.3363 11.0338 13.4698C10.9723 13.604 10.9963 13.7607 11.093 13.8717L13.718 16.8718C13.7893 16.9535 13.892 17 14 17C14.108 17 14.2108 16.9528 14.282 16.8718L16.907 13.8717C17.0045 13.7615 17.027 13.604 16.9663 13.4698Z" fill="#FFD700"/>
<path d="M18.125 16.25V18.5H9.875V16.25H8.375V19.25C8.375 19.6647 8.711 20 9.125 20H18.875C19.2897 20 19.625 19.6647 19.625 19.25V16.25H18.125Z" fill="#FFD700"/>
</svg>