<svg width="28" height="28" viewBox="0 0 28 28" fill="none" xmlns="http://www.w3.org/2000/svg">
<circle cx="14" cy="14" r="14" fill="#00428D"/>
<path d="M18.5296 9.47009C17.5815 8.52204 16.3211 8 14.9804 8C13.6398 8 12.3793 8.52204 11.4313 9.47009C9.70501 11.1964 9.50248 13.8772 10.8218 15.8286L7.27907 19.3713C6.90714 19.7433 6.90714 20.3485 7.27907 20.7205C7.45926 20.9008 7.69886 21 7.95367 21C8.20848 21 8.44802 20.9008 8.62827 20.7205L12.17 17.1788C12.9932 17.7375 13.9635 18.0384 14.9804 18.0384C16.321 18.0384 17.5815 17.5164 18.5295 16.5683C20.4866 14.6113 20.4866 11.4271 18.5296 9.47009ZM17.5765 15.6154C16.8831 16.3088 15.9611 16.6907 14.9804 16.6907C13.9998 16.6907 13.0778 16.3089 12.3844 15.6154C10.9529 14.1839 10.9529 11.8547 12.3844 10.4231C13.0778 9.72966 13.9998 9.34774 14.9804 9.34774C15.9611 9.34774 16.8831 9.72959 17.5765 10.4231C19.008 11.8546 19.008 14.1839 17.5765 15.6154ZM15.6279 12.6368H15.2827V11.374H16.5898C16.7723 11.374 16.9203 11.2261 16.9203 11.0435C16.9203 10.8609 16.7723 10.713 16.5898 10.713H15.2827V10.4838C15.2827 10.3013 15.1347 10.1533 14.9522 10.1533C14.7697 10.1533 14.6217 10.3013 14.6217 10.4838V10.713H14.3329C13.6203 10.713 13.0407 11.2927 13.0407 12.0056C13.0407 12.7182 13.6203 13.2978 14.3329 13.2978H14.6217V14.5606H13.3711C13.1886 14.5606 13.0407 14.7086 13.0407 14.8911C13.0407 15.0737 13.1886 15.2216 13.3711 15.2216H14.6217V15.5546C14.6217 15.7372 14.7697 15.8851 14.9522 15.8851C15.1347 15.8851 15.2827 15.7372 15.2827 15.5546V15.2216H15.6279C16.3405 15.2216 16.9203 14.6419 16.9203 13.9292C16.9203 13.2165 16.3405 12.6368 15.6279 12.6368ZM14.3328 12.6368C13.9847 12.6368 13.7016 12.3536 13.7016 12.0052C13.7016 11.6571 13.9847 11.3739 14.3328 11.3739H14.6217V12.6368H14.3328ZM15.6279 14.5606H15.2827V13.2978H15.6279C15.9761 13.2978 16.2593 13.581 16.2593 13.9292C16.2593 14.2774 15.976 14.5606 15.6279 14.5606Z" fill="#FFD700"/>
</svg>