<svg width="28" height="28" viewBox="0 0 28 28" fill="none" xmlns="http://www.w3.org/2000/svg">
<circle cx="14" cy="14" r="14" fill="#00428D"/>
<path d="M19.6781 10.5538C19.6781 10.4016 19.5861 10.2644 19.4453 10.2065L14.1426 8.02816C14.0512 7.99061 13.9487 7.99061 13.8573 8.02816L8.55467 10.2065C8.41386 10.2644 8.3219 10.4016 8.3219 10.5538V17.4462C8.3219 17.5984 8.41383 17.7356 8.55467 17.7935L13.8573 19.9718C13.9478 20.009 14.0494 20.0098 14.1422 19.9718C14.1467 19.9703 13.9459 20.0527 19.4453 17.7935C19.5861 17.7356 19.6781 17.5984 19.6781 17.4462V10.5538ZM14 12.3579L12.0462 11.5552L16.2686 9.71327L18.3531 10.5696L14 12.3579ZM9.07276 11.1455L10.7585 11.838V13.7917C10.7585 13.9991 10.9266 14.1672 11.1339 14.1672C11.3412 14.1672 11.5093 13.9991 11.5093 13.7917V12.1465L13.6246 13.0154V19.0645L9.07276 17.1945V11.1455ZM14 8.78129L15.3015 9.31595L11.079 11.1579L9.64688 10.5696L14 8.78129ZM14.3754 13.0154L18.9272 11.1455V17.1945L14.3754 19.0645V13.0154Z" fill="#FFD700"/>
</svg>