<svg width="28" height="28" viewBox="0 0 28 28" fill="none" xmlns="http://www.w3.org/2000/svg">
<circle cx="14" cy="14" r="14" fill="#00428D"/>
<g clip-path="url(#clip0)">
<path d="M19.0371 15.8766C18.3024 15.8766 17.5811 15.7617 16.8975 15.5358C16.5625 15.4216 16.1507 15.5264 15.9463 15.7363L14.597 16.7549C13.0322 15.9196 12.0683 14.9561 11.2445 13.403L12.2331 12.0889C12.4899 11.8324 12.582 11.4577 12.4717 11.1062C12.2448 10.419 12.1295 9.69794 12.1295 8.96294C12.1296 8.43197 11.6976 8 11.1667 8H8.96291C8.43197 8 8 8.43197 8 8.96291C8 15.0488 12.9512 20 19.0371 20C19.5681 20 20 19.568 20 19.0371V16.8395C20 16.3086 19.568 15.8766 19.0371 15.8766Z" fill="#FFD700"/>
</g>
<defs>
<clipPath id="clip0">
<rect width="12" height="12" fill="white" transform="translate(8 8)"/>
</clipPath>
</defs>
</svg>