<svg width="28" height="28" viewBox="0 0 28 28" fill="none" xmlns="http://www.w3.org/2000/svg">
<circle cx="14" cy="14" r="14" fill="#00428D"/>
<path d="M20 9.40625V18.0113L19.0625 17.0738V9.40625C19.0625 9.1478 18.8522 8.9375 18.5938 8.9375H9.40625C9.1478 8.9375 8.9375 9.1478 8.9375 9.40625V18.5938C8.9375 18.8522 9.1478 19.0625 9.40625 19.0625H17.0738L18.0113 20H9.40625C8.6308 20 8 19.3692 8 18.5938V9.40625C8 8.6308 8.6308 8 9.40625 8H18.5938C19.3692 8 20 8.6308 20 9.40625ZM15.9688 10.1094H12.0547V11.0469H15.9688V10.1094ZM17.657 16.9941L19.7689 19.1061L19.1061 19.769L16.9941 17.6571C16.5697 17.9519 16.0547 18.125 15.5 18.125C14.0526 18.125 12.875 16.9474 12.875 15.5C12.875 14.0526 14.0526 12.875 15.5 12.875C16.9474 12.875 18.125 14.0526 18.125 15.5C18.125 16.0547 17.9519 16.5697 17.657 16.9941ZM17.1875 15.5C17.1875 14.5695 16.4305 13.8125 15.5 13.8125C14.5695 13.8125 13.8125 14.5695 13.8125 15.5C13.8125 16.4305 14.5695 17.1875 15.5 17.1875C16.4305 17.1875 17.1875 16.4305 17.1875 15.5Z" fill="#FFD700"/>
</svg>