<svg width="28" height="28" viewBox="0 0 28 28" fill="none" xmlns="http://www.w3.org/2000/svg">
<circle cx="14" cy="14" r="14" fill="#00428D"/>
<path d="M14 20C12.3973 20 10.8906 19.3759 9.75734 18.2427C8.62409 17.1094 8 15.6027 8 14C8 12.3973 8.62412 10.8906 9.75734 9.75734C10.8906 8.62407 12.3973 8 14 8C15.6027 8 17.1094 8.62409 18.2427 9.75734C19.3759 10.8906 20 12.3973 20 14C20 15.6027 19.3759 17.1094 18.2427 18.2427C17.1094 19.3759 15.6027 20 14 20V20ZM14 8.75C11.1051 8.75 8.75 11.1051 8.75 14C8.75 16.8949 11.1051 19.25 14 19.25C16.8949 19.25 19.25 16.8949 19.25 14C19.25 11.1051 16.8949 8.75 14 8.75Z" fill="#FFD700"/>
<path d="M14 13.625C13.4831 13.625 13.0625 13.2044 13.0625 12.6875C13.0625 12.1706 13.4831 11.75 14 11.75C14.5169 11.75 14.9375 12.1706 14.9375 12.6875C14.9375 12.8946 15.1054 13.0625 15.3125 13.0625C15.5196 13.0625 15.6875 12.8946 15.6875 12.6875C15.6875 11.8859 15.1255 11.2136 14.375 11.0425V10.625C14.375 10.4179 14.2071 10.25 14 10.25C13.7929 10.25 13.625 10.4179 13.625 10.625V11.0425C12.8745 11.2136 12.3125 11.8859 12.3125 12.6875C12.3125 13.618 13.0695 14.375 14 14.375C14.5169 14.375 14.9375 14.7956 14.9375 15.3125C14.9375 15.8294 14.5169 16.25 14 16.25C13.4831 16.25 13.0625 15.8294 13.0625 15.3125C13.0625 15.1054 12.8946 14.9375 12.6875 14.9375C12.4804 14.9375 12.3125 15.1054 12.3125 15.3125C12.3125 16.1141 12.8745 16.7864 13.625 16.9575V17.375C13.625 17.5821 13.7929 17.75 14 17.75C14.2071 17.75 14.375 17.5821 14.375 17.375V16.9575C15.1255 16.7864 15.6875 16.1141 15.6875 15.3125C15.6875 14.382 14.9305 13.625 14 13.625Z" fill="#FFD700"/>
</svg>