<svg width="28" height="28" viewBox="0 0 28 28" fill="none" xmlns="http://www.w3.org/2000/svg">
<circle cx="14" cy="14" r="14" fill="#fa4612"/>
<g clip-path="url(#clip0)">
<path d="M18.9815 15.1853C18.8845 14.9454 18.6113 14.8294 18.3713 14.9264C18.1312 15.0235 18.0153 15.2967 18.1124 15.5367L18.6644 16.9023L17.0248 16.1795C16.9061 16.1272 16.771 16.1264 16.6517 16.1773C16.0914 16.4164 15.4911 16.5376 14.8676 16.5376C12.358 16.5376 10.6723 14.5727 10.6723 12.7376C10.6723 10.6422 12.5543 8.9375 14.8676 8.9375C17.1809 8.9375 19.0629 10.6422 19.0629 12.7376C19.0629 12.901 19.0476 13.0968 19.0211 13.2746C18.9829 13.5306 19.1595 13.7692 19.4156 13.8074C19.6717 13.8457 19.9102 13.669 19.9484 13.4129C19.9819 13.1881 20.0004 12.9483 20.0004 12.7376C20.0004 11.4642 19.4612 10.2694 18.482 9.37327C17.5145 8.48771 16.2308 8 14.8676 8C13.5043 8 12.2207 8.48771 11.2531 9.37325C10.3781 10.1741 9.85483 11.2135 9.75332 12.3342C8.65276 13.063 8.00038 14.2309 8.00038 15.4889C8.00038 16.2747 8.24795 17.0203 8.71921 17.6619L8.03455 19.3555C7.96305 19.5324 8.00587 19.735 8.14286 19.8678C8.23213 19.9543 8.34976 20 8.46923 20C8.53305 20 8.59741 19.987 8.6582 19.9602L10.6323 19.0899C11.1289 19.2748 11.6538 19.3684 12.1957 19.3684C12.2074 19.3684 12.2189 19.3674 12.2304 19.3666C13.0141 19.3607 13.776 19.1545 14.4358 18.7688C15.0269 18.4232 15.5131 17.9485 15.8539 17.3879C16.1867 17.3282 16.512 17.2379 16.8277 17.1172L19.3425 18.2258C19.4034 18.2526 19.4677 18.2656 19.5315 18.2656C19.651 18.2656 19.7686 18.2199 19.8579 18.1334C19.9949 18.0006 20.0377 17.7981 19.9662 17.6212L18.9815 15.1853ZM12.1957 18.4297C12.1893 18.4297 12.1831 18.4304 12.1767 18.4306C11.6981 18.4282 11.2374 18.3341 10.8072 18.1506C10.6879 18.0996 10.5528 18.1004 10.4341 18.1528L9.33639 18.6367L9.69051 17.7607C9.75597 17.5988 9.72594 17.4138 9.61265 17.2809C9.1712 16.763 8.93788 16.1434 8.93788 15.4889C8.93788 14.7398 9.253 14.03 9.80434 13.4918C9.976 14.4276 10.4603 15.3227 11.191 16.0259C12.1001 16.9009 13.3027 17.4078 14.6012 17.4688C13.9916 18.0689 13.1192 18.4297 12.1957 18.4297Z" fill="#FFD700"/>
<path d="M14.8437 13.2266C15.1026 13.2266 15.3125 13.0167 15.3125 12.7578C15.3125 12.4989 15.1026 12.2891 14.8437 12.2891C14.5849 12.2891 14.375 12.4989 14.375 12.7578C14.375 13.0167 14.5849 13.2266 14.8437 13.2266Z" fill="#FFD700"/>
<path d="M16.7187 13.2266C16.9776 13.2266 17.1875 13.0167 17.1875 12.7578C17.1875 12.4989 16.9776 12.2891 16.7187 12.2891C16.4599 12.2891 16.25 12.4989 16.25 12.7578C16.25 13.0167 16.4599 13.2266 16.7187 13.2266Z" fill="#FFD700"/>
<path d="M12.9687 13.2266C13.2276 13.2266 13.4375 13.0167 13.4375 12.7578C13.4375 12.4989 13.2276 12.2891 12.9687 12.2891C12.7099 12.2891 12.5 12.4989 12.5 12.7578C12.5 13.0167 12.7099 13.2266 12.9687 13.2266Z" fill="#FFD700"/>
</g>
<defs>
<clipPath id="clip0">
<rect width="12" height="12" fill="white" transform="translate(8 8)"/>
</clipPath>
</defs>
</svg>