<svg width="28" height="28" viewBox="0 0 28 28" fill="none" xmlns="http://www.w3.org/2000/svg">
<circle cx="14" cy="14" r="14" fill="#fa4612"/>
<path d="M16.2885 14C16.2885 15.1152 15.3845 16.0192 14.2692 16.0192C13.154 16.0192 12.25 15.1152 12.25 14C12.25 12.8848 13.154 11.9808 14.2692 11.9808C15.3845 11.9808 16.2885 12.8848 16.2885 14Z" fill="#FFD700"/>
<path d="M16.2885 7.94231C16.2885 9.05754 15.3845 9.96154 14.2692 9.96154C13.154 9.96154 12.25 9.05754 12.25 7.94231C12.25 6.82707 13.154 5.92308 14.2692 5.92308C15.3845 5.92308 16.2885 6.82707 16.2885 7.94231Z" fill="#FFD700"/>
<path d="M16.2885 20.0577C16.2885 21.1729 15.3845 22.0769 14.2692 22.0769C13.154 22.0769 12.25 21.1729 12.25 20.0577C12.25 18.9425 13.154 18.0385 14.2692 18.0385C15.3845 18.0385 16.2885 18.9425 16.2885 20.0577Z" fill="#FFD700"/>
</svg>